<?xml version="1.0" standalone="no"?>
<!DOCTYPE svg PUBLIC "-//W3C//DTD SVG 20010904//EN"
 "http://www.w3.org/TR/2001/REC-SVG-20010904/DTD/svg10.dtd">
<svg version="1.0" xmlns="http://www.w3.org/2000/svg"
 width="260.000000pt" height="260.000000pt" viewBox="0 0 260.000000 260.000000"
 preserveAspectRatio="xMidYMid meet">
<metadata>
Created by potrace 1.11, written by Peter Selinger 2001-2013
</metadata>
<g transform="translate(0.000000,260.000000) scale(0.100000,-0.100000)"
fill="#000000" stroke="none">
<path d="M1115 2203 c-99 -180 -193 -353 -209 -384 l-30 -57 -210 -41 c-116
-23 -222 -43 -236 -46 -14 -3 -97 -19 -185 -36 -88 -17 -167 -33 -175 -34 -8
-2 -25 -4 -37 -4 -13 -1 -23 -5 -23 -10 0 -9 4 -13 164 -185 61 -65 125 -133
141 -151 17 -18 84 -90 150 -160 140 -149 148 -160 141 -183 -3 -9 -8 -41 -11
-71 -4 -30 -8 -61 -10 -70 -1 -9 -6 -43 -9 -76 -4 -33 -9 -71 -11 -85 -2 -14
-6 -47 -9 -75 -8 -62 -17 -132 -21 -165 -2 -14 -7 -52 -11 -85 -3 -33 -8 -67
-9 -75 -2 -8 -6 -46 -10 -83 l-8 -69 29 15 c27 14 63 31 294 139 47 22 117 55
155 73 334 157 327 155 354 141 30 -16 175 -84 265 -126 33 -15 106 -49 161
-75 365 -174 345 -166 345 -142 -1 19 -9 92 -25 207 -2 19 -7 58 -10 85 -3 28
-7 59 -9 70 -2 12 -7 50 -11 85 -3 36 -8 76 -10 90 -1 14 -6 49 -10 79 -4 30
-8 61 -10 70 -1 9 -6 47 -9 85 -4 38 -9 72 -11 76 -6 9 16 33 239 270 39 42
107 114 150 160 43 47 104 112 135 145 67 71 88 97 75 94 -12 -3 -51 4 -324
57 -124 25 -240 47 -259 50 -102 17 -275 54 -282 61 -4 4 -27 42 -49 83 -89
160 -112 201 -215 390 -59 107 -119 216 -133 243 -13 26 -28 47 -31 47 -3 0
-87 -147 -186 -327z"/>
</g>
</svg>
